<svg width="14" height="24" viewBox="0 0 14 23.9997351" xmlns="http://www.w3.org/2000/svg"><title>facebook</title><path d="M10.486 2C8.21 2 6.87 2.8 6.14 4.146c-.25.461-.414.964-.503 1.47-.055.314-.072.562-.07.703v4.34H2v2.1h3.566L5.565 22h2.221v-9.24h3.695l.221-2.098H7.786V6.337c0-.622.25-1.11.658-1.516.1-.1.32-.29.33-.298.345-.3.789-.413 1.487-.501a11.994 11.994 0 0 1 1.14-.086L12 3.935V2.1l-.338-.034a18.531 18.531 0 0 0-.59-.043L10.486 2zM3.567 6.14c.022-.831.238-1.888.814-2.949C5.461 1.201 7.475 0 10.51 0c.885.02 1.767.098 2.642.231l.849.13v5.575h-2.57a10.055 10.055 0 0 0-.918.07c-.185.023-.34.05-.452.078-.027.007-.04.011-.014-.015l.006-.006-.03.026-.127.112-.038.036c-.063.063-.07.078-.07.1L9.785 8.66h4.137l-.116 1.105-.43 4.098-.094.896H9.786V24h-6.22l-.001-9.24H0V8.659h3.565V6.342l.002-.202z" fill="#fff" fill-rule="nonzero"/></svg>