<svg width="560" height="552" viewBox="0 0 560 552" xmlns="http://www.w3.org/2000/svg"><title>splash@2x</title><g fill="#FFF" fill-rule="evenodd"><path d="M375.128 91.146c17.214 6.065 52.827-21.495 18.426-40.804-23.037-12.93-42.388-1.328-33.234 23.399 2.71 7.317 7.274 14.751 14.808 17.405M312.673 17.455c3.34 2.129 8.097 2.021 11.444-.098 4.053-2.565 5.395-6.379 4.715-9.778-.863-4.323-4.994-7.978-10.976-7.544-9.585.695-13.798 11.93-5.183 17.42M54.928 159.634c4.99-6.04.362-17.001-7.434-17.607-6.815-.528-12.966 6.918-11.182 13.542 2.036 7.575 13.628 10.104 18.616 4.065"/><path d="M512.006 195.601c25.554 0 54.342-16.248 46.76-38.473-8.036-23.563-33.05-21.947-46.563-15.558-20.994 9.933-24.324 35.465-46.285 27.644-22.61-8.052-9.502-31.927-37.426-48.047-27.923-16.117-43.431 8.058-66.257-4.948-22.829-13.003-32.456-33.481-57.888-36.48-25.435-2.998-50.205 37.085-69.922 27.433-19.713-9.65-12.83-42.797-16.38-60.159-4.235-20.724-20.99-30.027-39.522-22.331-18.534 7.7-17.429 24.815-7.608 42.638 9.824 17.823 39.17 36.482 21.127 61.568-18.043 25.086-44.483 9.032-63.519 25.046-11.394 9.584-11.041 29.157-20.428 38.535-7.726 7.724-24.37 3.912-32.724-6.159-19.707-23.753-41.5 6.786-20.288 15.758 21.212 8.973 31.341 26.743 27.12 37.824-4.2 11.029-22.893 15.833-40.693 5.282-17.8-10.551-38.665-6.346-41.203 10.242-2.481 16.226 10.605 22.029 19.979 22.029 9.374 0 37.375-6.003 41.293 8.807 3.918 14.81-5.057 21.186-3.15 38.195 1.886 16.813 15.618 13.194 19.66 22.762 8.81 20.834-15.87 26.643-8.419 47.423 9.119 25.426 44.244-.624 53.55 34.102 6.255 23.352-10.28 38.233-26.307 45.77-36.83 17.324-29.047 37.044-22.541 44.819 9.68 11.574 40.84 11.019 55.147-21.857 7.816-17.96 19.351-33.066 39.63-29.947 30.414 4.68 19.84 43.069 55.44 46.716 35.6 3.647 47.4-31.962 85.84-25.979 13.981 2.178 26.08 10.083 31.2 25.66 6.346 19.305 20.612 32.256 37.36 28.406 14.98-3.441 19.929-23.732 11.831-41.34-7.31-15.895-4.052-31.94 4.164-36.39 13.957-7.546 33.2 7.473 45.998-3.225 15.777-13.187 5.969-34.838 16.451-41.405 10.483-6.567 27.795 3.463 42.626 18.285 13.07 13.065 39.58 14.051 45.133-2.674 5.4-16.263-5.49-25.825-19.032-28.627-17.934-3.712-34.417-9.412-34.417-23.301 0-20.176 11.632-26.453 12.53-40.174 2.345-35.92-23.35-35.318-23.35-56.614 0-9.662 5.897-20.821 17.067-20.821 10.186 0 34.706-2.265 28.385-21.929-3.49-10.86-22.151-11.5-32.88-5.244-11.57 6.742-25.804 2.162-28.326-8.623-4.898-20.934 21.03-34.639 46.837-34.639M422.007 47.352c5.32-2.238 6.756-10.432 2.511-14.34-4.242-3.91-12.304-1.82-14.107 3.658-1.033 3.132-.072 6.83 2.356 9.068 2.43 2.236 6.195 2.895 9.24 1.614M420.163 534.008c-3.01-.116-6.275 1.058-7.738 3.635-2.232 3.934-1.93 8.758 1.537 11.955 5.985 5.517 16.682.887 16.008-7.351-.377-4.596-5.097-8.058-9.807-8.24"/><path d="M193.933 524.344c-5.952-1.85-12.817 4.079-11.84 10.227 1.022 6.444 10.19 9.788 15.13 5.52 4.94-4.268 2.948-13.807-3.29-15.747M182.306 494.867c-3.175-6.234-10.465-10.16-17.643-9.85-7.175.31-13.927 4.652-17.35 10.766-2.93 5.234-3.343 12.13.316 16.916 3.541 4.634 9.971 6.325 15.923 6.301 5.503-.021 11.234-1.373 15.281-4.976 5.288-4.706 6.648-12.923 3.473-19.157"/></g></svg>