<svg width="16.714" height="18" viewBox="0 0 16.7143056 18.0000215" xmlns="http://www.w3.org/2000/svg"><title>calendar@2x</title><path d="M1.286 16.714V6.43h14.143v10.285H1.286zM5.143 4.5c0 .18-.14.321-.322.321H4.18a.317.317 0 0 1-.322-.321V1.607c0-.18.14-.321.322-.321h.642c.181 0 .322.14.322.321V4.5zm7.714 0c0 .18-.14.321-.321.321h-.643a.317.317 0 0 1-.322-.321V1.607c0-.18.141-.321.322-.321h.643c.18 0 .321.14.321.321V4.5zm3.857-.643c0-.703-.582-1.286-1.285-1.286h-1.286v-.964C14.143.723 13.42 0 12.536 0h-.643c-.884 0-1.607.723-1.607 1.607v.964H6.429v-.964C6.429.723 5.705 0 4.82 0H4.18C3.295 0 2.57.723 2.57 1.607v.964H1.286C.583 2.571 0 3.154 0 3.857v12.857C0 17.417.583 18 1.286 18h14.143c.703 0 1.285-.583 1.285-1.286V3.857z" fill="#FFF" fill-rule="nonzero"/></svg>