<svg width="19.968" height="19.968" viewBox="0 0 19.968 19.968" xmlns="http://www.w3.org/2000/svg"><title>info@2x</title><path d="M9 6.984V4.968h1.968v2.016H9zM9.984 18c1.44 0 2.784-.368 4.032-1.104a7.773 7.773 0 0 0 2.88-2.88A7.802 7.802 0 0 0 18 9.984c0-1.44-.368-2.784-1.104-4.032a7.773 7.773 0 0 0-2.88-2.88 7.802 7.802 0 0 0-4.032-1.104c-1.44 0-2.784.368-4.032 1.104a7.773 7.773 0 0 0-2.88 2.88 7.802 7.802 0 0 0-1.104 4.032c0 1.44.368 2.784 1.104 4.032a7.773 7.773 0 0 0 2.88 2.88A7.802 7.802 0 0 0 9.984 18zm0-18c1.824 0 3.512.456 5.064 1.368A9.463 9.463 0 0 1 18.6 4.92a9.819 9.819 0 0 1 1.368 5.064 9.819 9.819 0 0 1-1.368 5.064 9.463 9.463 0 0 1-3.552 3.552 9.819 9.819 0 0 1-5.064 1.368A9.819 9.819 0 0 1 4.92 18.6a9.642 9.642 0 0 1-3.552-3.576A9.775 9.775 0 0 1 0 9.984c0-1.808.456-3.488 1.368-5.04a9.826 9.826 0 0 1 3.576-3.576A9.775 9.775 0 0 1 9.984 0zM9 15V9h1.968v6H9z" fill="#FFF" fill-rule="nonzero"/></svg>